<svg width="610" height="340" viewBox="0 0 610 340" xmlns="http://www.w3.org/2000/svg" role="img" aria-labelledby="title desc">
  <title id="title">Vedantam Play School logo</title>
  <desc id="desc">Vedantam Play Learn Grow logo with open book, sun, leaves, cloud, and playful stars.</desc>
  <defs>
    <linearGradient id="leafGrad" x1="0" x2="1" y1="0" y2="1">
      <stop offset="0" stop-color="#9ad21c"/>
      <stop offset="1" stop-color="#12b5e8"/>
    </linearGradient>
    <linearGradient id="textGrad" x1="0" x2="1" y1="0" y2="0">
      <stop offset="0" stop-color="#7fc414"/>
      <stop offset="0.48" stop-color="#ec3896"/>
      <stop offset="1" stop-color="#0aa4df"/>
    </linearGradient>
    <filter id="softShadow" x="-20%" y="-20%" width="140%" height="140%">
      <feDropShadow dx="0" dy="8" stdDeviation="8" flood-color="#dfe6ee" flood-opacity="0.9"/>
    </filter>
  </defs>
  <rect width="610" height="340" fill="#f3f6fb"/>
  <ellipse cx="305" cy="170" rx="232" ry="165" fill="#fff" filter="url(#softShadow)"/>
  <g transform="translate(96 48)">
    <path d="M30 160c23 0 39 8 53 24c20-11 42-13 68-5c19-19 42-26 69-19c19-16 42-22 70-14c19-22 46-31 79-27" fill="none" stroke="#24aee4" stroke-width="18" stroke-linecap="round" opacity="0.9"/>
    <circle cx="238" cy="77" r="40" fill="#ffc20e"/>
    <path d="M197 103h81" stroke="#ff7c25" stroke-width="8" stroke-linecap="round"/>
    <path d="M202 121h72" stroke="#ff7c25" stroke-width="8" stroke-linecap="round"/>
    <path d="M209 139h57" stroke="#ff7c25" stroke-width="8" stroke-linecap="round"/>
    <path d="M135 36c53 11 85 56 96 133c-44-14-75-53-96-133z" fill="#77c713"/>
    <path d="M144 54c35 27 60 65 77 109" fill="none" stroke="#35a91c" stroke-width="8" stroke-linecap="round"/>
    <path d="M360 34c-55 8-91 51-110 128c47-10 84-47 110-128z" fill="#46d99a"/>
    <path d="M346 53c-36 25-65 62-86 106" fill="none" stroke="#13a8df" stroke-width="8" stroke-linecap="round"/>
    <path d="M185 151c32-21 68-21 107 0c-40-8-75-8-107 0z" fill="#0aa4df"/>
    <path d="M92 73l8 14l16 2l-12 11l3 16l-15-8l-14 8l3-16l-12-11l16-2z" fill="#ff6f3c"/>
    <path d="M418 68l8 14l16 2l-12 11l3 16l-15-8l-14 8l3-16l-12-11l16-2z" fill="#9a4cc2"/>
    <path d="M486 106l37-16l-13 38z" fill="#ffc20e"/>
    <circle cx="78" cy="122" r="9" fill="#6ecb25"/>
    <circle cx="443" cy="129" r="8" fill="#0aa4df"/>
    <circle cx="124" cy="111" r="6" fill="#0aa4df"/>
    <text x="89" y="232" font-family="Nunito, Arial, sans-serif" font-size="74" font-weight="900" fill="url(#textGrad)">Vedantam</text>
    <text x="198" y="269" font-family="Nunito, Arial, sans-serif" font-size="20" font-weight="900" fill="#ec3896" letter-spacing="3">PLAY • LEARN • GROW</text>
  </g>
</svg>
